<?xml version="1.0" encoding="UTF-8" standalone="no"?>
<!-- Created with Inkscape (http://www.inkscape.org/) -->

<svg
   xmlns:dc="http://purl.org/dc/elements/1.1/"
   xmlns:cc="http://creativecommons.org/ns#"
   xmlns:rdf="http://www.w3.org/1999/02/22-rdf-syntax-ns#"
   xmlns:svg="http://www.w3.org/2000/svg"
   xmlns="http://www.w3.org/2000/svg"
   xmlns:sodipodi="http://sodipodi.sourceforge.net/DTD/sodipodi-0.dtd"
   xmlns:inkscape="http://www.inkscape.org/namespaces/inkscape"
   width="1052.3622"
   height="744.09448"
   id="svg2"
   version="1.1"
   inkscape:version="0.91 r13725"
   sodipodi:docname="stencil.svg"
   viewBox="0 0 297 210">
  <defs
     id="defs4" />
  <sodipodi:namedview
     id="base"
     pagecolor="#ffffff"
     bordercolor="#666666"
     borderopacity="1.0"
     inkscape:pageopacity="0.0"
     inkscape:pageshadow="2"
     inkscape:zoom="9.0526138"
     inkscape:cx="498.80968"
     inkscape:cy="515.03318"
     inkscape:document-units="mm"
     inkscape:current-layer="layer3"
     showgrid="false"
     showguides="true"
     inkscape:guide-bbox="true"
     units="mm"
     inkscape:object-nodes="true"
     inkscape:snap-midpoints="false"
     inkscape:object-paths="false"
     inkscape:snap-intersection-paths="true"
     inkscape:snap-smooth-nodes="false" />
  <metadata
     id="metadata7">
    <rdf:RDF>
      <cc:Work
         rdf:about="">
        <dc:format>image/svg+xml</dc:format>
        <dc:type
           rdf:resource="http://purl.org/dc/dcmitype/StillImage" />
        <dc:title />
      </cc:Work>
    </rdf:RDF>
  </metadata>
  <g
     inkscape:label="Layer 1"
     inkscape:groupmode="layer"
     id="layer1"
     transform="translate(0,-86.999998)"
     style="display:inline">
    <rect
       ry="0"
       rx="0"
       y="130.69391"
       x="48.609238"
       height="3.7"
       width="18.5"
       id="rect4135"
       style="opacity:1;fill:#000000;fill-opacity:0.5;stroke:none;stroke-width:0.1;stroke-linecap:square;stroke-miterlimit:4;stroke-dasharray:0.2, 0.1;stroke-dashoffset:0;stroke-opacity:1" />
    <rect
       style="opacity:1;fill:#000000;fill-opacity:0.5;stroke:none;stroke-width:0.1;stroke-linecap:square;stroke-miterlimit:4;stroke-dasharray:0.2, 0.1;stroke-dashoffset:0;stroke-opacity:1"
       id="rect4139"
       width="18.5"
       height="3.7"
       x="30.109236"
       y="126.99391"
       rx="0"
       ry="0" />
    <rect
       ry="0"
       rx="0"
       y="126.99391"
       x="67.109238"
       height="3.7"
       width="18.5"
       id="rect4141"
       style="opacity:1;fill:#000000;fill-opacity:0.5;stroke:none;stroke-width:0.1;stroke-linecap:square;stroke-miterlimit:4;stroke-dasharray:0.2, 0.1;stroke-dashoffset:0;stroke-opacity:1" />
    <g
       id="g4333"
       transform="translate(-89.304476,-67.565737)">
      <rect
         y="191.55965"
         x="119.66371"
         height="3"
         width="18"
         id="rect4168"
         style="opacity:1;fill:#008000;fill-opacity:1;stroke:none;stroke-width:0.35433072;stroke-linecap:square;stroke-miterlimit:4;stroke-dasharray:0.70866142, 0.35433071;stroke-dashoffset:0;stroke-opacity:1" />
      <path
         inkscape:connector-curvature="0"
         id="path4170"
         d="m 134.66371,170.05964 3,11 -18,0 3,-11 z"
         style="fill:#b3b3b3;fill-rule:evenodd;stroke:none;stroke-width:0.28222221px;stroke-linecap:butt;stroke-linejoin:miter;stroke-opacity:1" />
      <path
         inkscape:connector-curvature="0"
         id="path4176"
         d="m 122.66371,191.55964 12,0 1.5,-5.25 -1.5,-5.25 -12,0 -1.5,5.25 z"
         style="fill:#000000;fill-rule:evenodd;stroke:none;stroke-width:0.28222221px;stroke-linecap:butt;stroke-linejoin:miter;stroke-opacity:1" />
      <rect
         y="181.05965"
         x="119.66371"
         height="7"
         width="18"
         id="rect4221"
         style="opacity:1;fill:#b3b3b3;fill-opacity:0.70196078;stroke:none;stroke-width:0.35433072;stroke-linecap:square;stroke-miterlimit:4;stroke-dasharray:0.70866142, 0.35433071;stroke-dashoffset:0;stroke-opacity:1" />
      <rect
         style="opacity:1;fill:#ff0000;fill-opacity:0.70196078;stroke:none;stroke-width:0.35433072;stroke-linecap:square;stroke-miterlimit:4;stroke-dasharray:0.70866142, 0.35433071;stroke-dashoffset:0;stroke-opacity:1"
         id="rect4323"
         width="0.25"
         height="7"
         x="137.66371"
         y="181.05965" />
      <rect
         y="181.05965"
         x="119.41371"
         height="7"
         width="0.25"
         id="rect4327"
         style="opacity:1;fill:#ff0000;fill-opacity:0.70196078;stroke:none;stroke-width:0.35433072;stroke-linecap:square;stroke-miterlimit:4;stroke-dasharray:0.70866142, 0.35433071;stroke-dashoffset:0;stroke-opacity:1" />
    </g>
    <rect
       style="opacity:1;fill:#000000;fill-opacity:0.5;stroke:none;stroke-width:0.1;stroke-linecap:square;stroke-miterlimit:4;stroke-dasharray:0.2, 0.1;stroke-dashoffset:0;stroke-opacity:1"
       id="rect4199"
       width="18.5"
       height="2"
       x="85.609238"
       y="124.99391"
       rx="0"
       ry="0" />
    <g
       id="g4341"
       transform="translate(-33.804476,-69.565737)">
      <rect
         style="opacity:1;fill:#008000;fill-opacity:1;stroke:none;stroke-width:0.35433072;stroke-linecap:square;stroke-miterlimit:4;stroke-dasharray:0.70866142, 0.35433071;stroke-dashoffset:0;stroke-opacity:1"
         id="rect4343"
         width="18"
         height="3"
         x="119.66371"
         y="191.55965" />
      <path
         style="fill:#b3b3b3;fill-rule:evenodd;stroke:none;stroke-width:0.28222221px;stroke-linecap:butt;stroke-linejoin:miter;stroke-opacity:1"
         d="m 134.66371,170.05964 3,11 -18,0 3,-11 z"
         id="path4345"
         inkscape:connector-curvature="0" />
      <path
         style="fill:#000000;fill-rule:evenodd;stroke:none;stroke-width:0.28222221px;stroke-linecap:butt;stroke-linejoin:miter;stroke-opacity:1"
         d="m 122.66371,191.55964 12,0 1.5,-5.25 -1.5,-5.25 -12,0 -1.5,5.25 z"
         id="path4347"
         inkscape:connector-curvature="0" />
      <rect
         style="opacity:1;fill:#b3b3b3;fill-opacity:0.70196078;stroke:none;stroke-width:0.35433072;stroke-linecap:square;stroke-miterlimit:4;stroke-dasharray:0.70866142, 0.35433071;stroke-dashoffset:0;stroke-opacity:1"
         id="rect4349"
         width="18"
         height="7"
         x="119.66371"
         y="181.05965" />
      <rect
         y="181.05965"
         x="137.66371"
         height="7"
         width="0.25"
         id="rect4351"
         style="opacity:1;fill:#ff0000;fill-opacity:0.70196078;stroke:none;stroke-width:0.35433072;stroke-linecap:square;stroke-miterlimit:4;stroke-dasharray:0.70866142, 0.35433071;stroke-dashoffset:0;stroke-opacity:1" />
      <rect
         style="opacity:1;fill:#ff0000;fill-opacity:0.70196078;stroke:none;stroke-width:0.35433072;stroke-linecap:square;stroke-miterlimit:4;stroke-dasharray:0.70866142, 0.35433071;stroke-dashoffset:0;stroke-opacity:1"
         id="rect4353"
         width="0.25"
         height="7"
         x="119.41371"
         y="181.05965" />
    </g>
    <g
       id="g4355"
       transform="translate(-52.304476,-67.565737)">
      <rect
         y="191.55965"
         x="119.66371"
         height="3"
         width="18"
         id="rect4357"
         style="opacity:1;fill:#008000;fill-opacity:1;stroke:none;stroke-width:0.35433072;stroke-linecap:square;stroke-miterlimit:4;stroke-dasharray:0.70866142, 0.35433071;stroke-dashoffset:0;stroke-opacity:1" />
      <path
         inkscape:connector-curvature="0"
         id="path4359"
         d="m 134.66371,170.05964 3,11 -18,0 3,-11 z"
         style="fill:#b3b3b3;fill-rule:evenodd;stroke:none;stroke-width:0.28222221px;stroke-linecap:butt;stroke-linejoin:miter;stroke-opacity:1" />
      <path
         inkscape:connector-curvature="0"
         id="path4361"
         d="m 122.66371,191.55964 12,0 1.5,-5.25 -1.5,-5.25 -12,0 -1.5,5.25 z"
         style="fill:#000000;fill-rule:evenodd;stroke:none;stroke-width:0.28222221px;stroke-linecap:butt;stroke-linejoin:miter;stroke-opacity:1" />
      <rect
         y="181.05965"
         x="119.66371"
         height="7"
         width="18"
         id="rect4363"
         style="opacity:1;fill:#b3b3b3;fill-opacity:0.70196078;stroke:none;stroke-width:0.35433072;stroke-linecap:square;stroke-miterlimit:4;stroke-dasharray:0.70866142, 0.35433071;stroke-dashoffset:0;stroke-opacity:1" />
      <rect
         style="opacity:1;fill:#ff0000;fill-opacity:0.70196078;stroke:none;stroke-width:0.35433072;stroke-linecap:square;stroke-miterlimit:4;stroke-dasharray:0.70866142, 0.35433071;stroke-dashoffset:0;stroke-opacity:1"
         id="rect4365"
         width="0.25"
         height="7"
         x="137.66371"
         y="181.05965" />
      <rect
         y="181.05965"
         x="119.41371"
         height="7"
         width="0.25"
         id="rect4367"
         style="opacity:1;fill:#ff0000;fill-opacity:0.70196078;stroke:none;stroke-width:0.35433072;stroke-linecap:square;stroke-miterlimit:4;stroke-dasharray:0.70866142, 0.35433071;stroke-dashoffset:0;stroke-opacity:1" />
    </g>
    <g
       id="g4369"
       transform="translate(-70.804476,-63.865738)">
      <rect
         style="opacity:1;fill:#008000;fill-opacity:1;stroke:none;stroke-width:0.35433072;stroke-linecap:square;stroke-miterlimit:4;stroke-dasharray:0.70866142, 0.35433071;stroke-dashoffset:0;stroke-opacity:1"
         id="rect4371"
         width="18"
         height="3"
         x="119.66371"
         y="191.55965" />
      <path
         style="fill:#b3b3b3;fill-rule:evenodd;stroke:none;stroke-width:0.28222221px;stroke-linecap:butt;stroke-linejoin:miter;stroke-opacity:1"
         d="m 134.66371,170.05964 3,11 -18,0 3,-11 z"
         id="path4373"
         inkscape:connector-curvature="0" />
      <path
         style="fill:#000000;fill-rule:evenodd;stroke:none;stroke-width:0.28222221px;stroke-linecap:butt;stroke-linejoin:miter;stroke-opacity:1"
         d="m 122.66371,191.55964 12,0 1.5,-5.25 -1.5,-5.25 -12,0 -1.5,5.25 z"
         id="path4375"
         inkscape:connector-curvature="0" />
      <rect
         style="opacity:1;fill:#b3b3b3;fill-opacity:0.70196078;stroke:none;stroke-width:0.35433072;stroke-linecap:square;stroke-miterlimit:4;stroke-dasharray:0.70866142, 0.35433071;stroke-dashoffset:0;stroke-opacity:1"
         id="rect4377"
         width="18"
         height="7"
         x="119.66371"
         y="181.05965" />
      <rect
         y="181.05965"
         x="137.66371"
         height="7"
         width="0.25"
         id="rect4379"
         style="opacity:1;fill:#ff0000;fill-opacity:0.70196078;stroke:none;stroke-width:0.35433072;stroke-linecap:square;stroke-miterlimit:4;stroke-dasharray:0.70866142, 0.35433071;stroke-dashoffset:0;stroke-opacity:1" />
      <rect
         style="opacity:1;fill:#ff0000;fill-opacity:0.70196078;stroke:none;stroke-width:0.35433072;stroke-linecap:square;stroke-miterlimit:4;stroke-dasharray:0.70866142, 0.35433071;stroke-dashoffset:0;stroke-opacity:1"
         id="rect4381"
         width="0.25"
         height="7"
         x="119.41371"
         y="181.05965" />
    </g>
    <rect
       ry="0"
       rx="0"
       y="115.33385"
       x="39.957668"
       height="2"
       width="18.5"
       id="rect4401"
       style="opacity:1;fill:#000000;fill-opacity:0.5;stroke:none;stroke-width:0.1;stroke-linecap:square;stroke-miterlimit:4;stroke-dasharray:0.2, 0.1;stroke-dashoffset:0;stroke-opacity:1"
       transform="matrix(0.96592583,0.25881905,-0.25881905,0.96592583,0,0)" />
    <g
       transform="matrix(0.96592583,0.25881905,-0.25881905,0.96592583,-56.243495,-97.090975)"
       id="g4403">
      <rect
         y="191.55965"
         x="119.66371"
         height="3"
         width="18"
         id="rect4405"
         style="opacity:1;fill:#008000;fill-opacity:1;stroke:none;stroke-width:0.35433072;stroke-linecap:square;stroke-miterlimit:4;stroke-dasharray:0.70866142, 0.35433071;stroke-dashoffset:0;stroke-opacity:1" />
      <path
         inkscape:connector-curvature="0"
         id="path4407"
         d="m 134.66371,170.05964 3,11 -18,0 3,-11 z"
         style="fill:#b3b3b3;fill-rule:evenodd;stroke:none;stroke-width:0.28222221px;stroke-linecap:butt;stroke-linejoin:miter;stroke-opacity:1" />
      <path
         inkscape:connector-curvature="0"
         id="path4409"
         d="m 122.66371,191.55964 12,0 1.5,-5.25 -1.5,-5.25 -12,0 -1.5,5.25 z"
         style="fill:#000000;fill-rule:evenodd;stroke:none;stroke-width:0.28222221px;stroke-linecap:butt;stroke-linejoin:miter;stroke-opacity:1" />
      <rect
         y="181.05965"
         x="119.66371"
         height="7"
         width="18"
         id="rect4411"
         style="opacity:1;fill:#b3b3b3;fill-opacity:0.70196078;stroke:none;stroke-width:0.35433072;stroke-linecap:square;stroke-miterlimit:4;stroke-dasharray:0.70866142, 0.35433071;stroke-dashoffset:0;stroke-opacity:1" />
      <rect
         style="opacity:1;fill:#ff0000;fill-opacity:0.70196078;stroke:none;stroke-width:0.35433072;stroke-linecap:square;stroke-miterlimit:4;stroke-dasharray:0.70866142, 0.35433071;stroke-dashoffset:0;stroke-opacity:1"
         id="rect4413"
         width="0.25"
         height="7"
         x="137.66371"
         y="181.05965" />
      <rect
         y="181.05965"
         x="119.41371"
         height="7"
         width="0.25"
         id="rect4415"
         style="opacity:1;fill:#ff0000;fill-opacity:0.70196078;stroke:none;stroke-width:0.35433072;stroke-linecap:square;stroke-miterlimit:4;stroke-dasharray:0.70866142, 0.35433071;stroke-dashoffset:0;stroke-opacity:1" />
    </g>
    <rect
       ry="0"
       rx="0"
       y="148.1403"
       x="71.705048"
       height="2"
       width="18.5"
       id="rect4419"
       style="opacity:1;fill:#000000;fill-opacity:0.5;stroke:none;stroke-width:0.1;stroke-linecap:square;stroke-miterlimit:4;stroke-dasharray:0.2, 0.1;stroke-dashoffset:0;stroke-opacity:1"
       transform="matrix(0.96592583,-0.25881905,0.25881905,0.96592583,0,0)" />
    <g
       transform="matrix(0.96592583,-0.25881905,0.25881905,0.96592583,-58.097239,-32.489737)"
       id="g4421">
      <rect
         y="191.55965"
         x="119.66371"
         height="3"
         width="18"
         id="rect4423"
         style="opacity:1;fill:#008000;fill-opacity:1;stroke:none;stroke-width:0.35433072;stroke-linecap:square;stroke-miterlimit:4;stroke-dasharray:0.70866142, 0.35433071;stroke-dashoffset:0;stroke-opacity:1" />
      <path
         inkscape:connector-curvature="0"
         id="path4425"
         d="m 134.66371,170.05964 3,11 -18,0 3,-11 z"
         style="fill:#b3b3b3;fill-rule:evenodd;stroke:none;stroke-width:0.28222221px;stroke-linecap:butt;stroke-linejoin:miter;stroke-opacity:1" />
      <path
         inkscape:connector-curvature="0"
         id="path4427"
         d="m 122.66371,191.55964 12,0 1.5,-5.25 -1.5,-5.25 -12,0 -1.5,5.25 z"
         style="fill:#000000;fill-rule:evenodd;stroke:none;stroke-width:0.28222221px;stroke-linecap:butt;stroke-linejoin:miter;stroke-opacity:1" />
      <rect
         y="181.05965"
         x="119.66371"
         height="7"
         width="18"
         id="rect4429"
         style="opacity:1;fill:#b3b3b3;fill-opacity:0.70196078;stroke:none;stroke-width:0.35433072;stroke-linecap:square;stroke-miterlimit:4;stroke-dasharray:0.70866142, 0.35433071;stroke-dashoffset:0;stroke-opacity:1" />
      <rect
         style="opacity:1;fill:#ff0000;fill-opacity:0.70196078;stroke:none;stroke-width:0.35433072;stroke-linecap:square;stroke-miterlimit:4;stroke-dasharray:0.70866142, 0.35433071;stroke-dashoffset:0;stroke-opacity:1"
         id="rect4431"
         width="0.25"
         height="7"
         x="137.66371"
         y="181.05965" />
      <rect
         y="181.05965"
         x="119.41371"
         height="7"
         width="0.25"
         id="rect4433"
         style="opacity:1;fill:#ff0000;fill-opacity:0.70196078;stroke:none;stroke-width:0.35433072;stroke-linecap:square;stroke-miterlimit:4;stroke-dasharray:0.70866142, 0.35433071;stroke-dashoffset:0;stroke-opacity:1" />
    </g>
    <rect
       style="opacity:1;fill:#000000;fill-opacity:0.5;stroke:none;stroke-width:0.1;stroke-linecap:square;stroke-miterlimit:4;stroke-dasharray:0.2, 0.1;stroke-dashoffset:0;stroke-opacity:1"
       id="rect4437"
       width="18.5"
       height="2"
       x="52.283913"
       y="166.89934"
       rx="0"
       ry="0"
       transform="matrix(0.8660254,-0.5,0.5,0.8660254,0,0)" />
    <g
       id="g4439"
       transform="matrix(0.86602541,-0.50000001,0.50000001,0.86602541,-71.96627,9.6103621)">
      <rect
         style="opacity:1;fill:#008000;fill-opacity:1;stroke:none;stroke-width:0.35433072;stroke-linecap:square;stroke-miterlimit:4;stroke-dasharray:0.70866142, 0.35433071;stroke-dashoffset:0;stroke-opacity:1"
         id="rect4441"
         width="18"
         height="3"
         x="119.66371"
         y="191.55965" />
      <path
         style="fill:#b3b3b3;fill-rule:evenodd;stroke:none;stroke-width:0.28222221px;stroke-linecap:butt;stroke-linejoin:miter;stroke-opacity:1"
         d="m 134.66371,170.05964 3,11 -18,0 3,-11 z"
         id="path4443"
         inkscape:connector-curvature="0" />
      <path
         style="fill:#000000;fill-rule:evenodd;stroke:none;stroke-width:0.28222221px;stroke-linecap:butt;stroke-linejoin:miter;stroke-opacity:1"
         d="m 122.66371,191.55964 12,0 1.5,-5.25 -1.5,-5.25 -12,0 -1.5,5.25 z"
         id="path4445"
         inkscape:connector-curvature="0" />
      <rect
         style="opacity:1;fill:#b3b3b3;fill-opacity:0.70196078;stroke:none;stroke-width:0.35433072;stroke-linecap:square;stroke-miterlimit:4;stroke-dasharray:0.70866142, 0.35433071;stroke-dashoffset:0;stroke-opacity:1"
         id="rect4447"
         width="18"
         height="7"
         x="119.66371"
         y="181.05965" />
      <rect
         y="181.05965"
         x="137.66371"
         height="7"
         width="0.25"
         id="rect4449"
         style="opacity:1;fill:#ff0000;fill-opacity:0.70196078;stroke:none;stroke-width:0.35433072;stroke-linecap:square;stroke-miterlimit:4;stroke-dasharray:0.70866142, 0.35433071;stroke-dashoffset:0;stroke-opacity:1" />
      <rect
         style="opacity:1;fill:#ff0000;fill-opacity:0.70196078;stroke:none;stroke-width:0.35433072;stroke-linecap:square;stroke-miterlimit:4;stroke-dasharray:0.70866142, 0.35433071;stroke-dashoffset:0;stroke-opacity:1"
         id="rect4451"
         width="0.25"
         height="7"
         x="119.41371"
         y="181.05965" />
    </g>
  </g>
  <g
     inkscape:groupmode="layer"
     id="layer2"
     inkscape:label="Layer 2"
     style="display:inline">
    <path
       style="fill:none;fill-rule:evenodd;stroke:#000000;stroke-width:0.1;stroke-linecap:butt;stroke-linejoin:miter;stroke-miterlimit:4;stroke-dasharray:none;stroke-opacity:0.50259064"
       d="m 26.615174,39.533913 3.49406,0.46"
       id="path4462"
       inkscape:connector-curvature="0" />
    <path
       style="fill:none;fill-rule:evenodd;stroke:#000000;stroke-width:0.1;stroke-linecap:butt;stroke-linejoin:miter;stroke-miterlimit:4;stroke-dasharray:none;stroke-opacity:0.50259064"
       d="m 106.08625,39.510943 -0.46,-3.49405"
       id="path4464"
       inkscape:connector-curvature="0" />
    <path
       style="fill:none;fill-rule:evenodd;stroke:#000000;stroke-width:0.1;stroke-linecap:butt;stroke-linejoin:miter;stroke-miterlimit:4;stroke-dasharray:none;stroke-opacity:0.50259064"
       d="m 125.47291,32.745753 3.25595,-1.348649"
       id="path4466"
       inkscape:connector-curvature="0" />
    <path
       inkscape:connector-curvature="0"
       id="path4468"
       d="m 127.77521,33.699403 -1.34865,-3.255949"
       style="fill:none;fill-rule:evenodd;stroke:#000000;stroke-width:0.1;stroke-linecap:butt;stroke-linejoin:miter;stroke-miterlimit:4;stroke-dasharray:none;stroke-opacity:0.50259064" />
    <path
       inkscape:connector-curvature="0"
       id="path4470"
       d="m 107.60327,37.533913 -3.49405,0.46"
       style="fill:none;fill-rule:evenodd;stroke:#000000;stroke-width:0.1;stroke-linecap:butt;stroke-linejoin:miter;stroke-miterlimit:4;stroke-dasharray:none;stroke-opacity:0.50259064" />
    <path
       inkscape:connector-curvature="0"
       id="path4472"
       d="m 28.132204,41.510943 0.46,-3.49406"
       style="fill:none;fill-rule:evenodd;stroke:#000000;stroke-width:0.1;stroke-linecap:butt;stroke-linejoin:miter;stroke-miterlimit:4;stroke-dasharray:none;stroke-opacity:0.50259064" />
    <rect
       transform="matrix(0.96592582,0.25881905,-0.25881905,0.96592582,0,0)"
       style="opacity:1;fill:#000000;fill-opacity:0.5;stroke:none;stroke-width:0.1;stroke-linecap:square;stroke-miterlimit:4;stroke-dasharray:0.2, 0.1;stroke-dashoffset:0;stroke-opacity:1"
       id="rect4498"
       width="20.228943"
       height="2.1869125"
       x="17.487131"
       y="31.285793"
       rx="0"
       ry="0" />
    <rect
       ry="0"
       rx="0"
       y="39.993912"
       x="28.331923"
       height="3.7"
       width="20.277311"
       id="rect4500"
       style="opacity:1;fill:#000000;fill-opacity:0.5;stroke:none;stroke-width:0.1;stroke-linecap:square;stroke-miterlimit:4;stroke-dasharray:0.2, 0.1;stroke-dashoffset:0;stroke-opacity:1" />
    <rect
       ry="0"
       rx="0"
       y="37.993912"
       x="85.609238"
       height="2.1921403"
       width="20.277298"
       id="rect4502"
       style="opacity:1;fill:#000000;fill-opacity:0.5;stroke:none;stroke-width:0.1;stroke-linecap:square;stroke-miterlimit:4;stroke-dasharray:0.2, 0.1;stroke-dashoffset:0;stroke-opacity:1" />
    <rect
       transform="matrix(0.96592582,-0.25881905,0.25881905,0.96592582,0,0)"
       style="opacity:1;fill:#000000;fill-opacity:0.5;stroke:none;stroke-width:0.1;stroke-linecap:square;stroke-miterlimit:4;stroke-dasharray:0.2, 0.1;stroke-dashoffset:0;stroke-opacity:1"
       id="rect4504"
       width="20.228941"
       height="2.1869125"
       x="92.44664"
       y="64.092239"
       rx="0"
       ry="0" />
    <rect
       transform="matrix(0.96592582,-0.25881905,0.25881905,0.96592582,0,0)"
       style="opacity:1;fill:#000000;fill-opacity:0.5;stroke:none;stroke-width:0.1;stroke-linecap:square;stroke-miterlimit:4;stroke-dasharray:0.2, 0.1;stroke-dashoffset:0;stroke-opacity:1"
       id="rect4506"
       width="20.208448"
       height="2.1846972"
       x="94.291229"
       y="64.105209"
       rx="0"
       ry="0" />
    <rect
       transform="matrix(0.86489295,-0.50195636,0.49804621,0.86715049,0,0)"
       ry="0"
       rx="0"
       y="91.768784"
       x="94.213692"
       height="2.1893876"
       width="20.199112"
       id="rect4508"
       style="opacity:1;fill:#000000;fill-opacity:0.5;stroke:none;stroke-width:0.1;stroke-linecap:square;stroke-miterlimit:4;stroke-dasharray:0.2, 0.1;stroke-dashoffset:0;stroke-opacity:1" />
    <path
       style="fill:none;fill-rule:evenodd;stroke:#000000;stroke-width:0.28222221px;stroke-linecap:butt;stroke-linejoin:miter;stroke-opacity:1"
       d="m 8.7939105,34.745763 19.5380135,5.24815 20.27731,0 0,3.69999 18.5,0 0,-3.69999 18.5,0 0,-2 20.277296,0 21.30331,-5.707738 17.56049,-10.139068"
       id="path4516"
       inkscape:connector-curvature="0" />
  </g>
  <g
     inkscape:groupmode="layer"
     id="layer3"
     inkscape:label="Layer 3">
    <g
       id="g4530"
       transform="translate(-89.304476,-67.565737)">
      <path
         style="fill:none;fill-rule:evenodd;stroke:#000000;stroke-width:0.28222221px;stroke-linecap:butt;stroke-linejoin:miter;stroke-opacity:1"
         d="m 98.098386,102.3115 19.538014,5.24815 20.27731,0 0,3.69999 18.5,0 0,-3.69999 18.5,0 0,-2 20.2773,0 21.30331,-5.707738 17.56049,-10.139068"
         id="path4519"
         inkscape:connector-curvature="0" />
      <path
         inkscape:connector-curvature="0"
         id="path4526"
         d="m 98.098386,102.3115 7.322094,27.315 89.77053,-24.06685 0,0"
         style="fill:none;fill-rule:evenodd;stroke:#000000;stroke-width:0.28222221px;stroke-linecap:butt;stroke-linejoin:miter;stroke-opacity:1" />
      <path
         inkscape:connector-curvature="0"
         id="path4528"
         d="m 234.05481,89.71283 1.35772,5.064989 -18.91821,5.074093"
         style="fill:none;fill-rule:evenodd;stroke:#000000;stroke-width:0.28222221px;stroke-linecap:butt;stroke-linejoin:miter;stroke-opacity:1" />
    </g>
    <g
       id="g4278"
       transform="translate(-15.28654,42.034984)">
      <path
         inkscape:connector-curvature="0"
         id="path4537"
         d="m 24.720608,26.1115 19.538014,5.24815 20.27731,0 0,3.69999 18.5,0 0,-3.69999 18.499998,0 0,-2 20.2773,0 21.30331,-5.707738 17.56049,-10.139068"
         style="fill:none;fill-rule:evenodd;stroke:#000000;stroke-width:0.01;stroke-linecap:butt;stroke-linejoin:miter;stroke-miterlimit:4;stroke-dasharray:none;stroke-opacity:1" />
      <path
         style="fill:none;fill-rule:evenodd;stroke:#000000;stroke-width:0.01;stroke-linecap:butt;stroke-linejoin:miter;stroke-miterlimit:4;stroke-dasharray:none;stroke-opacity:1"
         d="m 24.720608,26.1115 7.322094,27.315 89.770528,-24.06685 0,0"
         id="path4539"
         inkscape:connector-curvature="0" />
      <path
         style="fill:none;fill-rule:evenodd;stroke:#000000;stroke-width:0.01;stroke-linecap:butt;stroke-linejoin:miter;stroke-miterlimit:4;stroke-dasharray:none;stroke-opacity:1"
         d="m 160.67703,13.51283 1.35772,5.064989 -18.91821,5.074093"
         id="path4541"
         inkscape:connector-curvature="0" />
      <rect
         y="35.059639"
         x="64.535934"
         height="3"
         width="18.5"
         id="rect4237"
         style="opacity:1;fill:#000000;fill-opacity:0.80310842;stroke:none;stroke-width:0.09999999;stroke-linecap:square;stroke-miterlimit:4;stroke-dasharray:none;stroke-dashoffset:0;stroke-opacity:0.50259064" />
      <rect
         style="opacity:1;fill:#000000;fill-opacity:0.80310836;stroke:none;stroke-width:0.09999999;stroke-linecap:square;stroke-miterlimit:4;stroke-dasharray:none;stroke-dashoffset:0;stroke-opacity:0.50259064"
         id="rect4242"
         width="18.5"
         height="3"
         x="83.035927"
         y="31.35965" />
      <rect
         y="29.35965"
         x="101.53593"
         height="3"
         width="18.5"
         id="rect4244"
         style="opacity:1;fill:#000000;fill-opacity:0.80310831;stroke:none;stroke-width:0.09999999;stroke-linecap:square;stroke-miterlimit:4;stroke-dasharray:none;stroke-dashoffset:0;stroke-opacity:0.50259064" />
      <rect
         style="opacity:1;fill:#000000;fill-opacity:0.80310831;stroke:none;stroke-width:0.09999999;stroke-linecap:square;stroke-miterlimit:4;stroke-dasharray:none;stroke-dashoffset:0;stroke-opacity:0.50259064"
         id="rect4246"
         width="18.5"
         height="3"
         x="46.035931"
         y="31.35965" />
      <rect
         transform="matrix(0.96592583,0.25881905,-0.25881905,0.96592583,0,0)"
         y="18.823608"
         x="30.636427"
         height="3"
         width="18.5"
         id="rect4248"
         style="opacity:1;fill:#000000;fill-opacity:0.80310831;stroke:none;stroke-width:0.09999999;stroke-linecap:square;stroke-miterlimit:4;stroke-dasharray:none;stroke-dashoffset:0;stroke-opacity:0.50259064" />
      <rect
         transform="matrix(0.96592583,-0.25881905,0.25881905,0.96592583,0,0)"
         style="opacity:1;fill:#000000;fill-opacity:0.37305705;stroke:none;stroke-width:0.09999999;stroke-linecap:square;stroke-miterlimit:4;stroke-dasharray:none;stroke-dashoffset:0;stroke-opacity:0.50259064"
         id="rect4250"
         width="135"
         height="3"
         x="16.705252"
         y="59.882477" />
      <rect
         transform="matrix(0.8660254,-0.5,0.5,0.8660254,0,0)"
         style="opacity:1;fill:#000000;fill-opacity:0.80310831;stroke:none;stroke-width:0.09999999;stroke-linecap:square;stroke-miterlimit:4;stroke-dasharray:none;stroke-dashoffset:0;stroke-opacity:0.50259064"
         id="rect4252"
         width="18.5"
         height="3"
         x="113.89397"
         y="92.040985" />
      <rect
         y="62.882477"
         x="16.705252"
         height="3"
         width="135"
         id="rect4254"
         style="opacity:1;fill:#000000;fill-opacity:0.80310831;stroke:none;stroke-width:0.09999999;stroke-linecap:square;stroke-miterlimit:4;stroke-dasharray:none;stroke-dashoffset:0;stroke-opacity:0.50259064"
         transform="matrix(0.96592583,-0.25881905,0.25881905,0.96592583,0,0)" />
      <rect
         transform="matrix(0.96592583,-0.25881905,0.25881905,0.96592583,0,0)"
         y="59.887054"
         x="111.84105"
         height="3"
         width="18.5"
         id="rect4256"
         style="opacity:1;fill:#000000;fill-opacity:0.80310831;stroke:none;stroke-width:0.09999999;stroke-linecap:square;stroke-miterlimit:4;stroke-dasharray:none;stroke-dashoffset:0;stroke-opacity:0.50259064" />
      <path
         sodipodi:nodetypes="cccccccccccc"
         inkscape:connector-curvature="0"
         d="m 64.535933,34.359649 10e-7,3.69999 18.5,0 -7e-6,-3.699989 18.500003,0 0,-2 18.5,0 2.15544,0 -89.780153,24.056521 -7.256758,-27.082592 18.757546,5.02607 z"
         style="fill:none;fill-rule:evenodd;stroke:#000000;stroke-width:0.28222221px;stroke-linecap:butt;stroke-linejoin:miter;stroke-opacity:1"
         id="path4264" />
    </g>
    <path
       sodipodi:nodetypes="cccccccccccc"
       inkscape:connector-curvature="0"
       d="m 48.238642,111.16771 0,3.69999 18.5,0 -1e-5,-3.69999 18.50001,0 0,-2 18.500008,0 2.15544,0 -89.780168,24.05652 -7.2567497,-27.08259 18.7575397,5.02607 z"
       style="fill:none;fill-rule:evenodd;stroke:#000000;stroke-width:0.28222221px;stroke-linecap:butt;stroke-linejoin:miter;stroke-opacity:1"
       id="path4276" />
    <path
       id="path4293"
       style="fill:none;fill-rule:evenodd;stroke:#000000;stroke-width:0.28222221px;stroke-linecap:butt;stroke-linejoin:miter;stroke-opacity:1"
       d="m 48.238641,149.08435 0,3.69999 18.5,0 -1e-5,-3.69999 18.50001,0 0,-2 18.500009,0 2.15544,0 -89.780169,24.05652 -7.2567487,-27.08259 18.7575387,5.02607 z"
       inkscape:connector-curvature="0"
       sodipodi:nodetypes="cccccccccccc" />
    <path
       sodipodi:nodetypes="cccccccccccc"
       inkscape:connector-curvature="0"
       d="m 48.238641,181.86941 0,3.69999 18.5,0 -1e-5,-3.69999 18.50001,0 0,-2 18.500009,0 2.15544,0 -89.780169,24.05652 -7.2567487,-27.08259 18.7575387,5.02607 z"
       style="fill:none;fill-rule:evenodd;stroke:#000000;stroke-width:0.28222221px;stroke-linecap:butt;stroke-linejoin:miter;stroke-opacity:1"
       id="path4295" />
    <path
       id="path4297"
       style="fill:none;fill-rule:evenodd;stroke:#000000;stroke-width:0.28222221px;stroke-linecap:butt;stroke-linejoin:miter;stroke-opacity:1"
       d="m 108.72008,171.78981 0,-3.69999 -18.499994,0 1e-5,3.69999 -18.50001,0 0,2 -18.500007,0 -2.15544,0 89.780171,-24.05652 7.25675,27.08259 -18.75754,-5.02607 z"
       inkscape:connector-curvature="0"
       sodipodi:nodetypes="cccccccccccc" />
    <path
       sodipodi:nodetypes="cccccccccccc"
       inkscape:connector-curvature="0"
       d="m 108.72008,135.86879 0,-3.69999 -18.499993,0 10e-6,3.69999 -18.50001,0 0,2 -18.500007,0 -2.15544,0 89.78017,-24.05652 7.25675,27.08259 -18.75754,-5.02607 z"
       style="fill:none;fill-rule:evenodd;stroke:#000000;stroke-width:0.28222221px;stroke-linecap:butt;stroke-linejoin:miter;stroke-opacity:1"
       id="path4299" />
    <path
       id="path4301"
       style="fill:none;fill-rule:evenodd;stroke:#000000;stroke-width:0.28222221px;stroke-linecap:butt;stroke-linejoin:miter;stroke-opacity:1"
       d="m 108.72008,97.667065 0,-3.69999 -18.499994,0 1e-5,3.69999 -18.50001,0 0,2 -18.500007,0 -2.15544,0 89.780171,-24.05652 7.25675,27.082595 -18.75754,-5.026075 z"
       inkscape:connector-curvature="0"
       sodipodi:nodetypes="cccccccccccc" />
    <path
       sodipodi:nodetypes="cccccccccccc"
       inkscape:connector-curvature="0"
       d="m 108.72008,200.58365 0,-3.69999 -18.499991,0 1e-5,3.69999 -18.50001,0 0,2 -18.500007,0 -2.15544,0 89.780168,-24.05652 7.25675,27.08259 -18.75754,-5.02607 z"
       style="fill:none;fill-rule:evenodd;stroke:#000000;stroke-width:0.28222221px;stroke-linecap:butt;stroke-linejoin:miter;stroke-opacity:1"
       id="path4303" />
    <path
       id="path4305"
       style="fill:none;fill-rule:evenodd;stroke:#000000;stroke-width:0.28222221px;stroke-linecap:butt;stroke-linejoin:miter;stroke-opacity:1"
       d="m 194.06169,83.982437 0,3.69999 18.5,0 -1e-5,-3.69999 18.50001,0 0,-2 18.5,0 2.15544,0 -89.78016,24.056523 -7.25675,-27.082593 18.75754,5.02607 z"
       inkscape:connector-curvature="0"
       sodipodi:nodetypes="cccccccccccc" />
    <path
       sodipodi:nodetypes="cccccccccccc"
       inkscape:connector-curvature="0"
       d="m 194.06169,121.89908 0,3.69999 18.5,0 -1e-5,-3.69999 18.50001,0 0,-2 18.5,0 2.15544,0 -89.78016,24.05652 -7.25675,-27.08259 18.75754,5.02607 z"
       style="fill:none;fill-rule:evenodd;stroke:#000000;stroke-width:0.28222221px;stroke-linecap:butt;stroke-linejoin:miter;stroke-opacity:1"
       id="path4307" />
    <path
       id="path4309"
       style="fill:none;fill-rule:evenodd;stroke:#000000;stroke-width:0.28222221px;stroke-linecap:butt;stroke-linejoin:miter;stroke-opacity:1"
       d="m 194.06169,154.68414 0,3.69999 18.5,0 -1e-5,-3.69999 18.50001,0 0,-2 18.5,0 2.15544,0 -89.78016,24.05652 -7.25675,-27.08259 18.75754,5.02607 z"
       inkscape:connector-curvature="0"
       sodipodi:nodetypes="cccccccccccc" />
    <path
       sodipodi:nodetypes="cccccccccccc"
       inkscape:connector-curvature="0"
       d="m 247.70405,144.85395 0,-3.69999 -18.5,0 1e-5,3.69999 -18.50001,0 0,2 -18.5,0 -2.15544,0 89.78016,-24.05652 7.25675,27.08259 -18.75754,-5.02607 z"
       style="fill:none;fill-rule:evenodd;stroke:#000000;stroke-width:0.28222221px;stroke-linecap:butt;stroke-linejoin:miter;stroke-opacity:1"
       id="path4311" />
    <path
       id="path4313"
       style="fill:none;fill-rule:evenodd;stroke:#000000;stroke-width:0.28222221px;stroke-linecap:butt;stroke-linejoin:miter;stroke-opacity:1"
       d="m 247.70405,108.93293 0,-3.69999 -18.49999,0 1e-5,3.69999 -18.50001,0 0,2 -18.50001,0 -2.15544,0 89.78016,-24.056527 7.25675,27.082597 -18.75754,-5.02607 z"
       inkscape:connector-curvature="0"
       sodipodi:nodetypes="cccccccccccc" />
    <path
       sodipodi:nodetypes="cccccccccccc"
       inkscape:connector-curvature="0"
       d="m 247.70405,70.731198 0,-3.69999 -18.5,0 1e-5,3.69999 -18.50001,0 0,2 -18.5,0 -2.15544,0 89.78016,-24.05652 7.25675,27.082595 -18.75754,-5.026075 z"
       style="fill:none;fill-rule:evenodd;stroke:#000000;stroke-width:0.28222221px;stroke-linecap:butt;stroke-linejoin:miter;stroke-opacity:1"
       id="path4315" />
    <path
       id="path4317"
       style="fill:none;fill-rule:evenodd;stroke:#000000;stroke-width:0.28222221px;stroke-linecap:butt;stroke-linejoin:miter;stroke-opacity:1"
       d="m 247.70405,173.64779 0,-3.69999 -18.49999,0 1e-5,3.69999 -18.50001,0 0,2 -18.50001,0 -2.15544,0 89.78016,-24.05652 7.25675,27.08259 -18.75754,-5.02607 z"
       inkscape:connector-curvature="0"
       sodipodi:nodetypes="cccccccccccc" />
    <path
       id="path4321"
       style="fill:none;fill-rule:evenodd;stroke:#000000;stroke-width:0.28222221px;stroke-linecap:butt;stroke-linejoin:miter;stroke-opacity:1"
       d="m 188.57475,10.913332 0,3.69999 18.5,0 -1e-5,-3.69999 18.50001,0 0,-2 18.5,0 2.15544,0 -89.78016,24.05652 -7.25675,-27.08259 18.75754,5.02607 z"
       inkscape:connector-curvature="0"
       sodipodi:nodetypes="cccccccccccc" />
    <path
       id="path4323"
       style="fill:none;fill-rule:evenodd;stroke:#000000;stroke-width:0.28222221px;stroke-linecap:butt;stroke-linejoin:miter;stroke-opacity:1"
       d="m 242.21711,33.868202 0,-3.69999 -18.5,0 1e-5,3.69999 -18.50001,0 0,2 -18.5,0 -2.15544,0 89.78016,-24.05652 7.25675,27.08259 -18.75754,-5.02607 z"
       inkscape:connector-curvature="0"
       sodipodi:nodetypes="cccccccccccc" />
    <path
       sodipodi:nodetypes="cccccccccccc"
       inkscape:connector-curvature="0"
       d="m 193.06406,47.57604 0,3.69999 18.5,0 -1e-5,-3.69999 18.50001,0 0,-2 18.5,0 2.15544,0 -89.78016,24.05652 -7.25675,-27.08259 18.75754,5.02607 z"
       style="fill:none;fill-rule:evenodd;stroke:#000000;stroke-width:0.28222221px;stroke-linecap:butt;stroke-linejoin:miter;stroke-opacity:1"
       id="path4329" />
    <path
       sodipodi:nodetypes="cccccccccccc"
       inkscape:connector-curvature="0"
       d="m 192.56525,182.61763 0,3.69999 18.5,0 -1e-5,-3.69999 18.50001,0 0,-2 18.5,0 2.15544,0 -89.78016,24.05652 -7.25675,-27.08259 18.75754,5.02607 z"
       style="fill:none;fill-rule:evenodd;stroke:#000000;stroke-width:0.28222221px;stroke-linecap:butt;stroke-linejoin:miter;stroke-opacity:1"
       id="path4331" />
    <path
       sodipodi:nodetypes="cccccccccccc"
       inkscape:connector-curvature="0"
       d="m 246.20761,201.58128 0,-3.69999 -18.49999,0 1e-5,3.69999 -18.50001,0 0,2 -18.50001,0 -2.15544,0 89.78016,-24.05652 7.25675,27.08259 -18.75754,-5.02607 z"
       style="fill:none;fill-rule:evenodd;stroke:#000000;stroke-width:0.28222221px;stroke-linecap:butt;stroke-linejoin:miter;stroke-opacity:1"
       id="path4333" />
  </g>
</svg>
